<mxfile host="Electron" agent="Mozilla/5.0 (Windows NT 10.0; Win64; x64) AppleWebKit/537.36 (KHTML, like Gecko) draw.io/27.0.9 Chrome/134.0.6998.205 Electron/35.4.0 Safari/537.36" version="27.0.9">
  <diagram name="Pagina-1" id="xflLQY4jqIvOhIpabUGz">
    <mxGraphModel dx="1042" dy="722" grid="1" gridSize="10" guides="1" tooltips="1" connect="1" arrows="1" fold="1" page="1" pageScale="1" pageWidth="827" pageHeight="1169" math="0" shadow="0">
      <root>
        <mxCell id="0" />
        <mxCell id="1" parent="0" />
        <mxCell id="5S0tZLGz5VvMeQgxp51Q-30" value="" style="rounded=0;orthogonalLoop=1;jettySize=auto;html=1;startArrow=none;startFill=0;strokeColor=#7EA6E0;endArrow=none;" parent="1" source="5S0tZLGz5VvMeQgxp51Q-1" target="5S0tZLGz5VvMeQgxp51Q-10" edge="1">
          <mxGeometry relative="1" as="geometry" />
        </mxCell>
        <mxCell id="5S0tZLGz5VvMeQgxp51Q-31" style="rounded=0;orthogonalLoop=1;jettySize=auto;html=1;entryX=0;entryY=0.5;entryDx=0;entryDy=0;endArrow=none;startFill=0;strokeColor=#7EA6E0;" parent="1" source="5S0tZLGz5VvMeQgxp51Q-1" target="5S0tZLGz5VvMeQgxp51Q-13" edge="1">
          <mxGeometry relative="1" as="geometry" />
        </mxCell>
        <mxCell id="5S0tZLGz5VvMeQgxp51Q-1" value="&lt;font style=&quot;color: rgb(96, 169, 23);&quot;&gt;Utente&lt;/font&gt;" style="verticalLabelPosition=bottom;sketch=0;html=1;fillColor=#97D077;verticalAlign=top;align=center;pointerEvents=1;shape=mxgraph.cisco_safe.design.actor_2;" parent="1" vertex="1">
          <mxGeometry x="60" y="120" width="50" height="100" as="geometry" />
        </mxCell>
        <mxCell id="5S0tZLGz5VvMeQgxp51Q-39" style="rounded=0;orthogonalLoop=1;jettySize=auto;html=1;entryX=1;entryY=0.5;entryDx=0;entryDy=0;endArrow=none;startFill=0;strokeColor=#7EA6E0;" parent="1" source="5S0tZLGz5VvMeQgxp51Q-5" target="5S0tZLGz5VvMeQgxp51Q-26" edge="1">
          <mxGeometry relative="1" as="geometry" />
        </mxCell>
        <mxCell id="5S0tZLGz5VvMeQgxp51Q-5" value="&lt;font style=&quot;color: rgb(96, 169, 23);&quot;&gt;&amp;lt;&amp;lt;event&amp;gt;&amp;gt;&lt;/font&gt;&lt;div&gt;&lt;font style=&quot;color: rgb(96, 169, 23);&quot;&gt;Misurazione&lt;/font&gt;&lt;/div&gt;" style="verticalLabelPosition=bottom;sketch=0;html=1;fillColor=#97D077;verticalAlign=top;align=center;pointerEvents=1;shape=mxgraph.cisco_safe.design.actor_2;" parent="1" vertex="1">
          <mxGeometry x="820" y="430" width="50" height="100" as="geometry" />
        </mxCell>
        <mxCell id="5S0tZLGz5VvMeQgxp51Q-36" style="rounded=0;orthogonalLoop=1;jettySize=auto;html=1;entryX=0;entryY=0.5;entryDx=0;entryDy=0;endArrow=none;startFill=0;strokeColor=#7EA6E0;" parent="1" source="5S0tZLGz5VvMeQgxp51Q-7" target="5S0tZLGz5VvMeQgxp51Q-16" edge="1">
          <mxGeometry relative="1" as="geometry" />
        </mxCell>
        <mxCell id="5S0tZLGz5VvMeQgxp51Q-37" style="rounded=0;orthogonalLoop=1;jettySize=auto;html=1;entryX=0;entryY=0.5;entryDx=0;entryDy=0;endArrow=none;startFill=0;strokeColor=#7EA6E0;" parent="1" source="5S0tZLGz5VvMeQgxp51Q-7" target="5S0tZLGz5VvMeQgxp51Q-14" edge="1">
          <mxGeometry relative="1" as="geometry" />
        </mxCell>
        <mxCell id="ViLxzBqJOsgzUS6GisUL-1" style="rounded=0;orthogonalLoop=1;jettySize=auto;html=1;endArrow=block;endFill=0;strokeColor=#97D077;" edge="1" parent="1" source="5S0tZLGz5VvMeQgxp51Q-7">
          <mxGeometry relative="1" as="geometry">
            <mxPoint x="85" y="240" as="targetPoint" />
          </mxGeometry>
        </mxCell>
        <mxCell id="5S0tZLGz5VvMeQgxp51Q-7" value="&lt;font style=&quot;color: rgb(96, 169, 23);&quot;&gt;UtenteRegisrato&lt;/font&gt;" style="verticalLabelPosition=bottom;sketch=0;html=1;fillColor=#97D077;verticalAlign=top;align=center;pointerEvents=1;shape=mxgraph.cisco_safe.design.actor_2;" parent="1" vertex="1">
          <mxGeometry x="60" y="300" width="50" height="100" as="geometry" />
        </mxCell>
        <mxCell id="5S0tZLGz5VvMeQgxp51Q-38" style="rounded=0;orthogonalLoop=1;jettySize=auto;html=1;entryX=1;entryY=0.5;entryDx=0;entryDy=0;strokeColor=#7EA6E0;endArrow=none;startFill=0;" parent="1" source="5S0tZLGz5VvMeQgxp51Q-8" target="5S0tZLGz5VvMeQgxp51Q-20" edge="1">
          <mxGeometry relative="1" as="geometry" />
        </mxCell>
        <mxCell id="5S0tZLGz5VvMeQgxp51Q-8" value="&lt;font style=&quot;color: rgb(96, 169, 23);&quot;&gt;EnteLocale&lt;/font&gt;" style="verticalLabelPosition=bottom;sketch=0;html=1;fillColor=#97D077;verticalAlign=top;align=center;pointerEvents=1;shape=mxgraph.cisco_safe.design.actor_2;" parent="1" vertex="1">
          <mxGeometry x="850" y="140" width="50" height="100" as="geometry" />
        </mxCell>
        <mxCell id="5S0tZLGz5VvMeQgxp51Q-32" style="edgeStyle=orthogonalEdgeStyle;rounded=0;orthogonalLoop=1;jettySize=auto;html=1;exitX=0.5;exitY=0;exitDx=0;exitDy=0;entryX=0.5;entryY=1;entryDx=0;entryDy=0;startArrow=open;startFill=0;endArrow=none;dashed=1;strokeColor=#7EA6E0;" parent="1" source="5S0tZLGz5VvMeQgxp51Q-10" target="5S0tZLGz5VvMeQgxp51Q-11" edge="1">
          <mxGeometry relative="1" as="geometry" />
        </mxCell>
        <mxCell id="5S0tZLGz5VvMeQgxp51Q-33" value="&lt;font style=&quot;color: rgb(126, 166, 224);&quot;&gt;&amp;lt;&amp;lt;extend&amp;gt;&amp;gt;&lt;/font&gt;" style="edgeLabel;html=1;align=center;verticalAlign=middle;resizable=0;points=[];" parent="5S0tZLGz5VvMeQgxp51Q-32" vertex="1" connectable="0">
          <mxGeometry x="-0.04" y="6" relative="1" as="geometry">
            <mxPoint x="6" as="offset" />
          </mxGeometry>
        </mxCell>
        <mxCell id="5S0tZLGz5VvMeQgxp51Q-10" value="visualizzaUltimo&lt;div&gt;Dato&lt;/div&gt;" style="ellipse;whiteSpace=wrap;html=1;fillColor=#7EA6E0;strokeColor=none;fontColor=#FFFFFF;" parent="1" vertex="1">
          <mxGeometry x="195" y="130" width="105" height="50" as="geometry" />
        </mxCell>
        <mxCell id="5S0tZLGz5VvMeQgxp51Q-11" value="visualizzaStorico" style="ellipse;whiteSpace=wrap;html=1;fillColor=#7EA6E0;strokeColor=none;fontColor=#FFFFFF;" parent="1" vertex="1">
          <mxGeometry x="195" y="30" width="105" height="50" as="geometry" />
        </mxCell>
        <mxCell id="5S0tZLGz5VvMeQgxp51Q-34" style="rounded=0;orthogonalLoop=1;jettySize=auto;html=1;dashed=1;strokeColor=#7EA6E0;" parent="1" source="5S0tZLGz5VvMeQgxp51Q-12" target="5S0tZLGz5VvMeQgxp51Q-11" edge="1">
          <mxGeometry relative="1" as="geometry" />
        </mxCell>
        <mxCell id="5S0tZLGz5VvMeQgxp51Q-35" value="&lt;span style=&quot;color: rgb(126, 166, 224);&quot;&gt;&amp;lt;&amp;lt;extend&amp;gt;&amp;gt;&lt;/span&gt;" style="edgeLabel;html=1;align=center;verticalAlign=middle;resizable=0;points=[];" parent="5S0tZLGz5VvMeQgxp51Q-34" vertex="1" connectable="0">
          <mxGeometry x="-0.0397" relative="1" as="geometry">
            <mxPoint as="offset" />
          </mxGeometry>
        </mxCell>
        <mxCell id="5S0tZLGz5VvMeQgxp51Q-12" value="filtroStorico" style="ellipse;whiteSpace=wrap;html=1;fillColor=#7EA6E0;strokeColor=none;fontColor=#FFFFFF;" parent="1" vertex="1">
          <mxGeometry x="414" y="20" width="105" height="50" as="geometry" />
        </mxCell>
        <mxCell id="5S0tZLGz5VvMeQgxp51Q-13" value="registrazione" style="ellipse;whiteSpace=wrap;html=1;fillColor=#7EA6E0;strokeColor=none;fontColor=#FFFFFF;" parent="1" vertex="1">
          <mxGeometry x="195" y="230" width="105" height="50" as="geometry" />
        </mxCell>
        <mxCell id="5S0tZLGz5VvMeQgxp51Q-57" style="rounded=0;orthogonalLoop=1;jettySize=auto;html=1;exitX=1;exitY=1;exitDx=0;exitDy=0;entryX=0;entryY=0.5;entryDx=0;entryDy=0;dashed=1;endArrow=open;endFill=0;strokeColor=#7EA6E0;" parent="1" source="5S0tZLGz5VvMeQgxp51Q-14" target="5S0tZLGz5VvMeQgxp51Q-15" edge="1">
          <mxGeometry relative="1" as="geometry" />
        </mxCell>
        <mxCell id="5S0tZLGz5VvMeQgxp51Q-58" value="&lt;span style=&quot;color: rgb(126, 166, 224);&quot;&gt;&amp;lt;&amp;lt;include&amp;gt;&amp;gt;&lt;/span&gt;" style="edgeLabel;html=1;align=center;verticalAlign=middle;resizable=0;points=[];" parent="5S0tZLGz5VvMeQgxp51Q-57" vertex="1" connectable="0">
          <mxGeometry x="-0.0949" y="2" relative="1" as="geometry">
            <mxPoint as="offset" />
          </mxGeometry>
        </mxCell>
        <mxCell id="5S0tZLGz5VvMeQgxp51Q-14" value="visualizzaStatistiche" style="ellipse;whiteSpace=wrap;html=1;fillColor=#7EA6E0;strokeColor=none;fontColor=#FFFFFF;" parent="1" vertex="1">
          <mxGeometry x="195" y="310" width="115" height="60" as="geometry" />
        </mxCell>
        <mxCell id="5S0tZLGz5VvMeQgxp51Q-15" value="login" style="ellipse;whiteSpace=wrap;html=1;fillColor=#7EA6E0;strokeColor=none;fontColor=#FFFFFF;" parent="1" vertex="1">
          <mxGeometry x="390" y="370" width="105" height="50" as="geometry" />
        </mxCell>
        <mxCell id="5S0tZLGz5VvMeQgxp51Q-55" style="rounded=0;orthogonalLoop=1;jettySize=auto;html=1;exitX=1;exitY=0.5;exitDx=0;exitDy=0;entryX=0;entryY=1;entryDx=0;entryDy=0;endArrow=open;endFill=0;dashed=1;strokeColor=#7EA6E0;" parent="1" source="5S0tZLGz5VvMeQgxp51Q-16" target="5S0tZLGz5VvMeQgxp51Q-15" edge="1">
          <mxGeometry relative="1" as="geometry" />
        </mxCell>
        <mxCell id="5S0tZLGz5VvMeQgxp51Q-56" value="&lt;font style=&quot;color: rgb(126, 166, 224);&quot;&gt;&amp;lt;&amp;lt;include&amp;gt;&amp;gt;&lt;/font&gt;" style="edgeLabel;html=1;align=center;verticalAlign=middle;resizable=0;points=[];" parent="5S0tZLGz5VvMeQgxp51Q-55" vertex="1" connectable="0">
          <mxGeometry x="-0.0118" y="-1" relative="1" as="geometry">
            <mxPoint as="offset" />
          </mxGeometry>
        </mxCell>
        <mxCell id="5S0tZLGz5VvMeQgxp51Q-16" value="areaPersonale" style="ellipse;whiteSpace=wrap;html=1;fillColor=#7EA6E0;strokeColor=none;fontColor=#FFFFFF;" parent="1" vertex="1">
          <mxGeometry x="195" y="410" width="105" height="50" as="geometry" />
        </mxCell>
        <mxCell id="5S0tZLGz5VvMeQgxp51Q-49" style="rounded=0;orthogonalLoop=1;jettySize=auto;html=1;exitX=1;exitY=0.5;exitDx=0;exitDy=0;entryX=0;entryY=1;entryDx=0;entryDy=0;dashed=1;endArrow=open;endFill=0;strokeColor=#7EA6E0;" parent="1" source="5S0tZLGz5VvMeQgxp51Q-17" target="5S0tZLGz5VvMeQgxp51Q-16" edge="1">
          <mxGeometry relative="1" as="geometry" />
        </mxCell>
        <mxCell id="5S0tZLGz5VvMeQgxp51Q-52" value="&lt;span style=&quot;color: rgb(126, 166, 224);&quot;&gt;&amp;lt;&amp;lt;extend&amp;gt;&amp;gt;&lt;/span&gt;" style="edgeLabel;html=1;align=center;verticalAlign=middle;resizable=0;points=[];" parent="5S0tZLGz5VvMeQgxp51Q-49" vertex="1" connectable="0">
          <mxGeometry x="0.0589" y="2" relative="1" as="geometry">
            <mxPoint as="offset" />
          </mxGeometry>
        </mxCell>
        <mxCell id="5S0tZLGz5VvMeQgxp51Q-17" value="modificaDati&lt;div&gt;Personali&lt;/div&gt;" style="ellipse;whiteSpace=wrap;html=1;fillColor=#7EA6E0;strokeColor=none;fontColor=#FFFFFF;" parent="1" vertex="1">
          <mxGeometry x="60" y="470" width="105" height="50" as="geometry" />
        </mxCell>
        <mxCell id="5S0tZLGz5VvMeQgxp51Q-18" value="modificaLivello&lt;div&gt;Rischio&lt;/div&gt;" style="ellipse;whiteSpace=wrap;html=1;fillColor=#7EA6E0;strokeColor=none;fontColor=#FFFFFF;" parent="1" vertex="1">
          <mxGeometry x="180" y="535" width="105" height="50" as="geometry" />
        </mxCell>
        <mxCell id="5S0tZLGz5VvMeQgxp51Q-19" value="ricezioneMessaggi&lt;div&gt;NonPrioritari&lt;/div&gt;" style="ellipse;whiteSpace=wrap;html=1;fillColor=#7EA6E0;strokeColor=none;fontColor=#FFFFFF;" parent="1" vertex="1">
          <mxGeometry x="309" y="490" width="105" height="50" as="geometry" />
        </mxCell>
        <mxCell id="5S0tZLGz5VvMeQgxp51Q-59" style="rounded=0;orthogonalLoop=1;jettySize=auto;html=1;exitX=0;exitY=1;exitDx=0;exitDy=0;entryX=1;entryY=0;entryDx=0;entryDy=0;dashed=1;endArrow=open;endFill=0;strokeColor=#7EA6E0;" parent="1" source="5S0tZLGz5VvMeQgxp51Q-20" target="5S0tZLGz5VvMeQgxp51Q-15" edge="1">
          <mxGeometry relative="1" as="geometry" />
        </mxCell>
        <mxCell id="5S0tZLGz5VvMeQgxp51Q-60" value="&lt;span style=&quot;color: rgb(126, 166, 224);&quot;&gt;&amp;lt;&amp;lt;include&amp;gt;&amp;gt;&lt;/span&gt;" style="edgeLabel;html=1;align=center;verticalAlign=middle;resizable=0;points=[];" parent="5S0tZLGz5VvMeQgxp51Q-59" vertex="1" connectable="0">
          <mxGeometry x="-0.0141" relative="1" as="geometry">
            <mxPoint as="offset" />
          </mxGeometry>
        </mxCell>
        <mxCell id="5S0tZLGz5VvMeQgxp51Q-20" value="pannelloControllo" style="ellipse;whiteSpace=wrap;html=1;fillColor=#7EA6E0;strokeColor=none;fontColor=#FFFFFF;" parent="1" vertex="1">
          <mxGeometry x="590" y="170" width="105" height="50" as="geometry" />
        </mxCell>
        <mxCell id="5S0tZLGz5VvMeQgxp51Q-21" value="aggiuntaSensore" style="ellipse;whiteSpace=wrap;html=1;fillColor=#7EA6E0;strokeColor=none;fontColor=#FFFFFF;" parent="1" vertex="1">
          <mxGeometry x="519" y="80" width="105" height="50" as="geometry" />
        </mxCell>
        <mxCell id="5S0tZLGz5VvMeQgxp51Q-42" style="rounded=0;orthogonalLoop=1;jettySize=auto;html=1;exitX=0;exitY=1;exitDx=0;exitDy=0;entryX=1;entryY=0;entryDx=0;entryDy=0;endArrow=open;endFill=0;dashed=1;strokeColor=#7EA6E0;" parent="1" source="5S0tZLGz5VvMeQgxp51Q-22" target="5S0tZLGz5VvMeQgxp51Q-20" edge="1">
          <mxGeometry relative="1" as="geometry" />
        </mxCell>
        <mxCell id="5S0tZLGz5VvMeQgxp51Q-43" value="&lt;span style=&quot;color: rgb(126, 166, 224);&quot;&gt;&amp;lt;&amp;lt;extend&amp;gt;&amp;gt;&lt;/span&gt;" style="edgeLabel;html=1;align=center;verticalAlign=middle;resizable=0;points=[];" parent="5S0tZLGz5VvMeQgxp51Q-42" vertex="1" connectable="0">
          <mxGeometry x="-0.0861" y="-6" relative="1" as="geometry">
            <mxPoint as="offset" />
          </mxGeometry>
        </mxCell>
        <mxCell id="5S0tZLGz5VvMeQgxp51Q-22" value="rimozioneSensore" style="ellipse;whiteSpace=wrap;html=1;fillColor=#7EA6E0;strokeColor=none;fontColor=#FFFFFF;" parent="1" vertex="1">
          <mxGeometry x="680" y="80" width="105" height="50" as="geometry" />
        </mxCell>
        <mxCell id="5S0tZLGz5VvMeQgxp51Q-23" value="modificaSoglia&lt;div&gt;Rischio&lt;/div&gt;" style="ellipse;whiteSpace=wrap;html=1;fillColor=#7EA6E0;strokeColor=none;fontColor=#FFFFFF;" parent="1" vertex="1">
          <mxGeometry x="680" y="250" width="105" height="50" as="geometry" />
        </mxCell>
        <mxCell id="5S0tZLGz5VvMeQgxp51Q-46" style="rounded=0;orthogonalLoop=1;jettySize=auto;html=1;exitX=1;exitY=0.5;exitDx=0;exitDy=0;entryX=0;entryY=0.5;entryDx=0;entryDy=0;dashed=1;endArrow=open;endFill=0;strokeColor=#7EA6E0;" parent="1" source="5S0tZLGz5VvMeQgxp51Q-24" target="5S0tZLGz5VvMeQgxp51Q-20" edge="1">
          <mxGeometry relative="1" as="geometry" />
        </mxCell>
        <mxCell id="5S0tZLGz5VvMeQgxp51Q-47" value="&lt;span style=&quot;color: rgb(126, 166, 224);&quot;&gt;&amp;lt;&amp;lt;extend&amp;gt;&amp;gt;&lt;/span&gt;" style="edgeLabel;html=1;align=center;verticalAlign=middle;resizable=0;points=[];" parent="5S0tZLGz5VvMeQgxp51Q-46" vertex="1" connectable="0">
          <mxGeometry x="-0.0154" y="2" relative="1" as="geometry">
            <mxPoint as="offset" />
          </mxGeometry>
        </mxCell>
        <mxCell id="5S0tZLGz5VvMeQgxp51Q-24" value="invioMessaggi" style="ellipse;whiteSpace=wrap;html=1;fillColor=#7EA6E0;strokeColor=none;fontColor=#FFFFFF;" parent="1" vertex="1">
          <mxGeometry x="400" y="180" width="105" height="50" as="geometry" />
        </mxCell>
        <mxCell id="5S0tZLGz5VvMeQgxp51Q-48" style="rounded=0;orthogonalLoop=1;jettySize=auto;html=1;exitX=0.5;exitY=1;exitDx=0;exitDy=0;dashed=1;endArrow=open;endFill=0;strokeColor=#7EA6E0;" parent="1" source="5S0tZLGz5VvMeQgxp51Q-25" target="5S0tZLGz5VvMeQgxp51Q-26" edge="1">
          <mxGeometry relative="1" as="geometry" />
        </mxCell>
        <mxCell id="5S0tZLGz5VvMeQgxp51Q-25" value="notificaUtenti" style="ellipse;whiteSpace=wrap;html=1;fillColor=#7EA6E0;strokeColor=none;fontColor=#FFFFFF;" parent="1" vertex="1">
          <mxGeometry x="590" y="365" width="105" height="50" as="geometry" />
        </mxCell>
        <mxCell id="5S0tZLGz5VvMeQgxp51Q-26" value="analisiDati" style="ellipse;whiteSpace=wrap;html=1;fillColor=#7EA6E0;strokeColor=none;fontColor=#FFFFFF;" parent="1" vertex="1">
          <mxGeometry x="590" y="455" width="105" height="50" as="geometry" />
        </mxCell>
        <mxCell id="5S0tZLGz5VvMeQgxp51Q-40" style="rounded=0;orthogonalLoop=1;jettySize=auto;html=1;exitX=1;exitY=1;exitDx=0;exitDy=0;entryX=0.358;entryY=0.072;entryDx=0;entryDy=0;entryPerimeter=0;endArrow=open;endFill=0;strokeColor=#7EA6E0;dashed=1;" parent="1" source="5S0tZLGz5VvMeQgxp51Q-21" target="5S0tZLGz5VvMeQgxp51Q-20" edge="1">
          <mxGeometry relative="1" as="geometry" />
        </mxCell>
        <mxCell id="5S0tZLGz5VvMeQgxp51Q-41" value="&lt;span style=&quot;color: rgb(126, 166, 224);&quot;&gt;&amp;lt;&amp;lt;extend&amp;gt;&amp;gt;&lt;/span&gt;" style="edgeLabel;html=1;align=center;verticalAlign=middle;resizable=0;points=[];" parent="5S0tZLGz5VvMeQgxp51Q-40" vertex="1" connectable="0">
          <mxGeometry x="-0.0032" y="-3" relative="1" as="geometry">
            <mxPoint as="offset" />
          </mxGeometry>
        </mxCell>
        <mxCell id="5S0tZLGz5VvMeQgxp51Q-44" style="rounded=0;orthogonalLoop=1;jettySize=auto;html=1;exitX=0;exitY=0;exitDx=0;exitDy=0;entryX=0.716;entryY=0.936;entryDx=0;entryDy=0;entryPerimeter=0;endArrow=open;endFill=0;strokeColor=#7EA6E0;" parent="1" source="5S0tZLGz5VvMeQgxp51Q-23" target="5S0tZLGz5VvMeQgxp51Q-20" edge="1">
          <mxGeometry relative="1" as="geometry" />
        </mxCell>
        <mxCell id="5S0tZLGz5VvMeQgxp51Q-45" value="&lt;span style=&quot;color: rgb(126, 166, 224);&quot;&gt;&amp;lt;&amp;lt;extend&amp;gt;&amp;gt;&lt;/span&gt;" style="edgeLabel;html=1;align=center;verticalAlign=middle;resizable=0;points=[];" parent="5S0tZLGz5VvMeQgxp51Q-44" vertex="1" connectable="0">
          <mxGeometry x="-0.0128" y="1" relative="1" as="geometry">
            <mxPoint as="offset" />
          </mxGeometry>
        </mxCell>
        <mxCell id="5S0tZLGz5VvMeQgxp51Q-50" style="rounded=0;orthogonalLoop=1;jettySize=auto;html=1;exitX=0.5;exitY=0;exitDx=0;exitDy=0;entryX=0.394;entryY=1.032;entryDx=0;entryDy=0;entryPerimeter=0;endArrow=open;endFill=0;dashed=1;strokeColor=#7EA6E0;" parent="1" source="5S0tZLGz5VvMeQgxp51Q-18" target="5S0tZLGz5VvMeQgxp51Q-16" edge="1">
          <mxGeometry relative="1" as="geometry" />
        </mxCell>
        <mxCell id="5S0tZLGz5VvMeQgxp51Q-53" value="&lt;span style=&quot;color: rgb(126, 166, 224);&quot;&gt;&amp;lt;&amp;lt;extend&amp;gt;&amp;gt;&lt;/span&gt;" style="edgeLabel;html=1;align=center;verticalAlign=middle;resizable=0;points=[];" parent="5S0tZLGz5VvMeQgxp51Q-50" vertex="1" connectable="0">
          <mxGeometry x="0.0113" y="-2" relative="1" as="geometry">
            <mxPoint as="offset" />
          </mxGeometry>
        </mxCell>
        <mxCell id="5S0tZLGz5VvMeQgxp51Q-51" style="rounded=0;orthogonalLoop=1;jettySize=auto;html=1;exitX=0;exitY=0;exitDx=0;exitDy=0;entryX=0.752;entryY=1;entryDx=0;entryDy=0;entryPerimeter=0;endArrow=open;endFill=0;dashed=1;strokeColor=#7EA6E0;" parent="1" source="5S0tZLGz5VvMeQgxp51Q-19" target="5S0tZLGz5VvMeQgxp51Q-16" edge="1">
          <mxGeometry relative="1" as="geometry" />
        </mxCell>
        <mxCell id="5S0tZLGz5VvMeQgxp51Q-54" value="&lt;span style=&quot;color: rgb(126, 166, 224);&quot;&gt;&amp;lt;&amp;lt;extend&amp;gt;&amp;gt;&lt;/span&gt;" style="edgeLabel;html=1;align=center;verticalAlign=middle;resizable=0;points=[];" parent="5S0tZLGz5VvMeQgxp51Q-51" vertex="1" connectable="0">
          <mxGeometry x="0.2255" y="-2" relative="1" as="geometry">
            <mxPoint x="-1" as="offset" />
          </mxGeometry>
        </mxCell>
      </root>
    </mxGraphModel>
  </diagram>
</mxfile>
